<svg width="375" height="337" viewBox="0 0 375 337" fill="none" xmlns="http://www.w3.org/2000/svg">
<rect width="375" height="337" fill="#E5E5E5"/>
<g clip-path="url(#clip0)">
<rect width="375" height="812" fill="white"/>
<path d="M0 0H375V313H24C10.7452 313 0 302.255 0 289V0Z" fill="#2D31AC"/>
<path d="M-8.53364 275.547C-4.39483 285.279 20.8855 272.639 26.3666 268.724C27.8208 267.717 29.275 266.486 30.6173 265.368C31.2884 264.809 31.8477 264.249 32.407 263.69C35.0917 261.229 37.6644 258.433 40.2372 255.636C40.6847 255.189 41.1321 254.629 41.5795 254.182C44.1523 251.274 46.7251 248.365 49.4097 245.569C49.969 245.009 50.5283 244.45 51.0876 243.891C52.0944 242.884 53.1011 241.877 54.2197 240.871C55.4501 239.752 56.6806 238.633 58.0229 237.627C58.5822 237.067 59.2534 236.62 59.9245 236.172C62.1617 234.383 64.3989 232.817 66.748 231.251C67.4191 230.803 67.9784 230.356 68.6496 230.02C71.1105 228.454 73.5714 226.888 76.0323 225.322L77.4865 224.427C80.7305 222.414 83.9744 220.4 87.2183 218.387C87.6658 218.163 88.1132 217.827 88.5606 217.604C89.6792 216.821 90.9097 216.038 92.0283 215.367C104.668 206.865 116.637 195.903 121 181.361C113.953 193.666 101.089 202.391 87.1065 204.181C79.8356 205.187 72.341 204.404 65.4057 206.865C57.5755 209.55 51.6469 215.814 45.0472 220.624C34.5324 228.23 27.9326 222.078 15.8518 226.553C-5.73714 234.495 1.75746 250.043 -1.71019 255.972C-4.73041 260.11 -10.7708 270.29 -8.53364 275.547Z" fill="url(#paint0_linear)"/>
<path opacity="0.37" d="M75.6968 225.21C75.2493 223.421 75.2493 219.282 75.2493 218.611C75.473 215.59 76.4798 213.129 77.3747 210.221C76.4798 213.241 76.1442 216.485 76.4798 219.617C76.4798 220.065 77.1509 222.526 77.1509 224.204L75.6968 225.21Z" fill="#FFF7FB"/>
<path opacity="0.37" d="M88.2251 217.492C88.2251 217.268 88.1132 217.156 88.1132 217.044C87.7776 213.912 88.1132 210.668 89.0081 207.648C88.1132 210.445 87.1065 213.018 86.9946 216.038C86.9946 216.373 86.9946 217.268 86.9946 218.387C87.3302 218.051 87.7776 217.716 88.2251 217.492Z" fill="#FFF7FB"/>
<path opacity="0.37" d="M68.3142 229.908C68.0905 228.119 67.643 226.329 67.643 225.881C67.3075 222.078 67.643 218.163 68.6498 214.584C67.643 218.051 66.4126 220.96 66.1889 224.651C66.1889 225.322 66.077 228.79 66.4126 231.251C67.0837 230.691 67.7549 230.356 68.3142 229.908Z" fill="#FFF7FB"/>
<path opacity="0.37" d="M57.7992 237.515C58.3585 236.955 59.0297 236.508 59.7008 236.061C59.4771 234.271 59.0297 232.481 59.0297 232.034C58.5822 228.23 59.0297 224.315 60.0364 220.736C59.0297 224.203 57.7992 227.112 57.5755 230.803C57.4636 231.362 57.4637 235.054 57.7992 237.515Z" fill="#FFF7FB"/>
<path opacity="0.37" d="M49.2977 245.569C49.857 245.009 50.4163 244.45 50.9756 243.891C50.9756 241.877 50.1926 239.193 50.1926 238.633C49.857 234.83 50.1926 230.915 51.1993 227.336C50.1926 230.803 48.9622 233.712 48.7384 237.403C48.6266 238.186 48.6266 243.443 49.2977 245.569Z" fill="#FFF7FB"/>
<path opacity="0.37" d="M40.2373 255.636C39.2306 254.406 39.3424 247.694 39.3424 246.799C39.5662 243.22 40.7966 240.199 41.8034 236.732C40.6848 240.423 40.3492 244.226 40.7966 248.03C40.9085 248.589 41.8034 252.057 41.5796 254.182L40.2373 255.636Z" fill="#FFF7FB"/>
<path opacity="0.37" d="M30.6173 265.256C29.7224 263.131 29.7224 256.195 29.8343 255.077C30.058 250.714 31.624 247.247 32.8545 243.22C31.5121 247.582 31.1766 252.169 31.624 256.643C31.7359 257.314 32.6307 261.117 32.5189 263.578L30.6173 265.256Z" fill="#FFF7FB"/>
<path d="M-42.1054 298C-36.4691 284.793 -29.8487 272.036 -22.3336 259.818C-22.2441 259.728 -22.1547 259.638 -22.0652 259.548C-22.1547 260.087 -22.2441 259.009 -22.0652 259.548C-17.2341 257.032 -12.403 260.357 -7.30351 261.165C-0.235784 262.243 7.27926 260.357 13.005 255.954C18.7308 251.642 22.6672 244.904 23.6513 237.806C20.1622 242.029 14.5259 243.826 9.15803 244.724C3.79013 245.623 -1.84615 245.713 -7.03512 247.419C-9.54013 248.228 -15.1764 251.103 -18.755 254.517C-18.6656 254.337 -18.5761 254.068 -18.4866 253.888C-16.3395 250.564 -14.1923 247.33 -11.8662 244.095C-6.85619 236.908 -1.48829 229.99 4.148 223.342C1.19565 230.709 16.7625 231.607 22.9356 229.002C29.6455 226.127 35.0134 220.198 37.25 213.19C27.9457 217.682 17.6572 211.573 9.06856 217.682C12.8261 213.46 16.6731 209.327 20.699 205.374C20.699 205.554 20.7885 205.643 20.7885 205.823C21.6831 207.979 28.9298 206.632 30.7191 206.272C38.7709 204.925 43.1547 200.522 49.5067 196.21C46.3754 198.276 42.439 198.546 38.6814 198.456C34.9239 198.366 31.0769 198.007 27.4983 199.085C27.2299 199.175 26.9615 199.265 26.6037 199.444C29.1982 196.929 31.8821 194.503 34.5661 192.167C34.9239 192.437 35.3712 192.706 35.8186 192.886C41.9916 195.581 50.8487 187.945 54.4273 183.722C58.4532 179.05 61.2266 173.48 64 168C59.9741 170.605 55.2324 171.773 50.5803 173.031C45.9281 174.289 41.2759 175.816 37.6079 178.961C34.5661 181.656 31.0769 188.035 33.8503 191.449C30.2717 194.593 26.6931 197.917 23.2935 201.241C23.5619 200.792 23.7408 200.253 24.0092 199.624C26.3353 192.886 26.9615 185.16 26.8721 178.062C26.8721 177.164 26.5142 174.828 26.5142 174.828C26.5142 174.828 24.4565 176.176 23.9197 176.625C20.8779 179.41 17.7467 182.195 15.51 185.609C13.2734 189.023 11.9314 193.335 12.7366 197.378C13.8102 202.319 17.3888 205.194 20.4306 204.026C11.9314 212.561 3.8796 221.545 -3.54599 231.068C-3.36706 230.709 -3.09866 230.35 -2.91973 230.08C-1.30936 227.924 0.479933 225.858 2.00084 223.612C9.15803 212.831 9.15803 197.737 2.0903 186.956C2.89549 188.124 -1.48829 198.276 -2.02508 200.073C-3.27759 204.655 -4.44063 209.237 -5.51421 213.909C-6.58779 218.67 -7.39297 223.432 -8.19816 228.193C-8.37709 229.631 -9.98746 236.728 -8.28763 237.178C-9.80853 239.244 -11.3294 241.31 -12.7609 243.377C-14.0134 245.173 -15.2659 246.97 -16.4289 248.767C-14.3712 243.287 -14.0134 237.447 -13.8344 231.518C-13.6555 225.049 -13.3871 218.581 -13.2082 212.202C-13.2082 211.214 -13.4766 201.511 -13.4766 201.511C-13.4766 201.511 -18.2182 210.854 -18.6656 211.753C-24.3018 221.366 -27.5226 232.416 -27.9699 243.556C-28.1488 247.689 -29.1329 256.673 -25.4649 259.638C-24.8386 260.177 -24.2124 260.357 -23.6756 260.357C-31.1012 272.395 -37.5426 284.883 -43 297.641L-42.1054 298Z" fill="url(#paint1_linear)"/>
<path d="M-8.86945 285.279C-8.86945 278.791 -8.53387 267.717 -1.03926 261.788C11.2653 252.056 28.6036 254.629 38.4472 258.768C46.0537 262.012 45.1588 264.585 51.8704 266.263C63.6157 269.171 70.7747 262.459 77.9337 267.046C80.9539 268.947 84.6453 273.198 83.8623 277.113C80.8421 291.767 54.6669 297.472 31.4001 296.8C13.6144 296.353 -0.368105 290.089 -8.86945 285.279Z" fill="url(#paint2_linear)"/>
<path d="M83.8624 277.113C80.8422 291.767 54.667 297.471 31.4002 296.8C13.6145 296.353 -0.256106 290.089 -8.75745 285.279C-8.75745 284.831 -8.75745 284.272 -8.75745 283.713C-8.64559 277.113 -7.86257 267.269 -0.927265 261.9C11.4892 252.168 28.7156 254.741 38.5592 258.88C46.1657 262.124 45.2708 264.697 51.9824 266.374C63.7277 269.283 70.8867 262.571 78.0457 267.157C78.2694 267.269 78.605 267.493 78.8287 267.717C81.5134 269.73 84.5336 273.533 83.8624 277.113Z" fill="#1A1C6C"/>
<path opacity="0.2" d="M78.7167 267.605C76.5914 271.632 72.9 274.764 68.8731 277.001C58.9176 282.482 46.3893 283.042 36.0982 278.344C33.078 277.001 20.4378 272.303 16.9702 272.303C13.2788 272.303 9.58741 272.974 6.0079 274.093C0.414913 275.994 -4.84249 279.238 -8.86945 283.601C-8.75759 277.001 -7.97457 267.158 -1.03926 261.788C11.3772 252.056 28.6036 254.629 38.4472 258.768C46.0537 262.012 45.1588 264.585 51.8704 266.263C63.6157 269.171 70.7747 262.459 77.9337 267.046C78.1574 267.158 78.3812 267.381 78.7167 267.605Z" fill="#6F72D8"/>
<path d="M38.7828 280.021C36.5456 278.567 20.3259 268.724 2.54023 274.988C-14.798 281.14 -22.7401 313.244 -24.418 336.511" stroke="#5A5ED5" stroke-miterlimit="10" stroke-linecap="round" stroke-linejoin="round"/>
<path d="M246.115 274.004C233.181 272.711 213.532 265.436 207.561 248.956C201.967 233.489 211.344 218 213.424 214.799C213.424 214.799 205.459 211.296 206.095 203.956C206.731 196.616 210.557 195.98 210.557 195.98C210.557 195.98 203.228 188.974 206.095 179.09C208.962 169.207 212.152 168.571 212.152 168.571C212.152 168.571 207.032 155.195 215.019 147.866C223.006 140.536 229.667 143.727 229.667 143.727C229.667 143.727 239.874 129.693 253.261 131.31C266.647 132.927 273.977 143.727 273.977 143.727C273.977 143.727 272.381 130.34 287.051 129.057C292.041 128.626 296.105 132.905 297.883 135.438C301.31 140.31 300.039 146.292 299.155 147.542C297.883 149.461 312.865 130.976 330.078 145.958C337.526 152.425 337.72 164.443 337.084 168.592C337.019 169.045 341.848 169.379 345.706 172.731C349.22 175.803 351.742 181.839 352.4 183.887C353.672 187.907 354.469 194.417 353.348 198.869C352.574 202.028 350.918 204.902 348.573 207.157C348.573 207.157 353.348 212.546 345.706 222.775C343.665 225.361 342.707 228.637 343.033 231.915C343.357 235.149 347.948 240.538 348.886 247.317C349.123 249.01 348.315 260.176 342.839 267.074C337.364 273.972 327.222 277.281 324.99 277.281C316.066 277.281 311.604 272.172 311.604 272.172C311.604 272.172 306.506 272.819 299.748 269.445C277.092 258.096 264.966 275.891 246.115 274.004Z" fill="#FF8151"/>
<path d="M227.145 186.905C225.229 186.935 223.35 186.382 221.756 185.32C216.086 181.602 215.698 175.436 216.022 171.933C216.022 172.02 216.226 180.739 221.756 184.361C223.455 185.53 225.45 186.195 227.511 186.279C230.624 186.023 233.656 185.159 236.436 183.736C233.704 185.655 230.48 186.755 227.145 186.905Z" fill="black"/>
<path d="M224.914 238.382C222.509 238.357 220.204 237.422 218.46 235.767C216.717 234.111 215.665 231.857 215.515 229.457C215.515 229.565 215.515 229.673 215.515 229.781C215.582 232.239 216.6 234.576 218.355 236.299C220.11 238.022 222.465 238.996 224.924 239.018C229.936 239.018 234.959 235.784 234.959 230.729C234.965 230.625 234.965 230.521 234.959 230.417C234.733 235.245 229.818 238.382 224.914 238.382Z" fill="black"/>
<path d="M333.139 227.755C338.241 230.49 342.283 234.852 344.624 240.147C346.964 245.442 347.469 251.367 346.057 256.982C344.645 262.596 341.398 267.578 336.832 271.137C332.265 274.696 326.641 276.627 320.852 276.624C316.918 276.624 312.229 273.606 311.291 272.01C313.21 274.877 317.694 277.27 322.134 277.27C328.042 277.264 333.772 275.245 338.378 271.546C342.985 267.847 346.194 262.689 347.476 256.922C348.757 251.154 348.036 245.122 345.429 239.82C342.823 234.518 338.488 230.262 333.139 227.755V227.755Z" fill="black"/>
<path d="M217.886 211.522C209.738 215.909 205.707 227.259 205.707 237.164C205.707 244.053 208.444 250.66 213.315 255.532C218.186 260.403 224.793 263.14 231.683 263.14C235.617 263.14 240.305 260.111 241.243 258.516C239.335 261.383 234.851 263.776 230.411 263.776C223.522 263.776 216.914 261.039 212.043 256.168C207.172 251.296 204.435 244.689 204.435 237.8C204.435 227.388 209.037 215.672 217.886 211.522Z" fill="black"/>
<path d="M319.569 196.465C319.483 196.869 319.364 197.266 319.213 197.651C318.821 198.717 318.272 199.72 317.586 200.625C316.533 202.01 315.161 203.119 313.587 203.859C311.618 204.744 309.449 205.086 307.303 204.85C305.153 204.661 303.089 203.918 301.311 202.695C299.878 201.699 298.721 200.357 297.948 198.793C297.431 197.774 297.068 196.685 296.87 195.56C296.796 195.154 296.756 194.743 296.751 194.331C296.852 194.724 296.982 195.11 297.139 195.484C297.542 196.488 298.063 197.439 298.691 198.319C299.594 199.584 300.759 200.639 302.108 201.412C303.772 202.315 305.609 202.855 307.497 202.997C309.358 203.207 311.242 203.005 313.016 202.404C314.47 201.863 315.798 201.03 316.918 199.957C317.702 199.207 318.396 198.367 318.987 197.457C319.2 197.138 319.395 196.807 319.569 196.465V196.465Z" fill="black"/>
<path d="M344.586 222.764L344.93 222.161C345.135 221.773 345.513 221.266 345.847 220.576C346.795 218.897 347.537 217.109 348.056 215.252C348.541 213.407 348.705 211.493 348.541 209.593C348.48 208.764 348.332 207.944 348.099 207.146C348.258 207.317 348.402 207.501 348.53 207.696C348.888 208.223 349.188 208.786 349.425 209.377C350.223 211.396 350.359 213.615 349.813 215.715C349.226 217.764 348.111 219.622 346.58 221.104C346.137 221.553 345.657 221.964 345.146 222.333L344.586 222.764Z" fill="black"/>
<path d="M307.282 313.539L243.679 312.903L253.81 295.345H295.361L307.282 313.539Z" fill="#F8F8F8"/>
<path d="M295.372 284.492H253.81V295.561H295.372V284.492Z" fill="#FFCAB0"/>
<path d="M192.697 282.271C191.619 283.047 181.725 290.689 182.512 301.802C182.932 307.805 186.295 312.127 187.739 313.981C191.268 318.372 195.92 321.724 201.201 323.682C225.992 333.63 260.159 333.878 260.159 333.878C274.483 333.975 292.494 333.598 313.296 331.938L259.404 302.33C259.404 302.33 250.491 296.143 239.723 290.172C227.123 283.177 219.309 279.394 208.94 279.286C203.385 279.238 197.872 280.251 192.697 282.271Z" fill="white"/>
<path d="M310.849 224.262C310.849 224.262 307.099 221.848 302.96 219.574C302.107 219.093 301.217 218.682 300.297 218.345C298.066 217.526 296.654 217.698 293.572 217.138C289.444 216.383 289.638 215.446 289.638 215.446L284.367 220.188C281.818 222.473 278.516 223.737 275.092 223.737C271.669 223.737 268.366 222.473 265.818 220.188L260.558 215.446C260.558 215.446 260.741 216.383 256.613 217.138C253.53 217.698 252.118 217.526 249.887 218.345C248.973 218.685 248.086 219.095 247.236 219.574C243.118 221.848 239.368 224.262 239.368 224.262L247.624 244.903C247.624 244.903 244.757 285.613 245.835 285.44C246.912 285.268 270.883 285.44 274.839 285.44H275.4C279.344 285.44 303.423 285.268 304.393 285.44C305.363 285.613 302.604 244.914 302.604 244.914L310.849 224.262Z" fill="#A3003F"/>
<path d="M275.658 246.315C274.99 245.959 273.427 247.393 272.489 248.675C270.097 251.909 270.14 255.843 270.441 258.3C259.965 261.857 249.672 266.751 244.272 268.572C241.472 269.423 238.729 270.449 236.059 271.644C231.489 273.8 229.764 275.352 229.15 274.877C228.072 273.929 232.071 267.645 236.263 260.973C239.368 255.972 243.787 248.902 249.068 240.171L249.909 218.323C245.921 218.949 244.272 223.443 241.491 223.993C239.974 224.431 238.678 225.424 237.859 226.774C233.819 231.914 230.585 237.638 228.266 243.75C221.195 257.675 217.649 264.649 216.41 270.178C214.836 277.076 212.993 285.214 217.25 289.105C220.559 292.134 225.992 291.11 230.184 290.409C240.316 288.695 264.858 270.448 271.724 264.541C273.88 262.676 275.658 260.855 275.852 254.84C275.874 254.108 276.251 246.638 275.658 246.315Z" fill="#FFCAB0"/>
<path d="M247.624 244.903C251.754 236.668 252.568 227.162 249.898 218.345C247.956 218.451 246.059 218.973 244.336 219.876C242.348 220.912 240.642 222.418 239.368 224.262L247.624 244.903Z" fill="#8C063D"/>
<path d="M288.711 215.866C284.486 213.031 281.166 207.093 280.638 205.993C280.11 204.894 280.26 192.369 280.26 192.369H270.226C270.226 192.369 270.323 204.894 269.849 205.993C269.374 207.093 266.001 213.031 261.786 215.866C258.003 218.399 275.108 231.624 275.108 231.624C277.889 229.393 292.483 218.399 288.711 215.866Z" fill="#FFCAB0"/>
<path d="M270.237 193.415L280.444 204.484L280.26 192.369L270.237 193.415Z" fill="#E8B0A0"/>
<path d="M262.39 175.092C262.39 175.092 261.075 194.956 275.583 194.299C290.09 193.641 287.277 175.092 287.277 175.092C286.738 169.703 281.78 165.391 275.917 164.982C269.32 164.507 263.08 168.948 262.39 175.092Z" fill="#FFCAB0"/>
<path d="M262.896 175.501C262.896 175.501 258.952 176.073 259.253 178.735C259.301 179.472 259.512 180.19 259.869 180.837C260.227 181.483 260.724 182.043 261.323 182.475C261.951 182.629 262.595 182.705 263.241 182.701" fill="#FCBFAC"/>
<path d="M279.366 162.492C279.366 162.492 280.584 163.483 276.305 167.213C273.513 169.638 271.735 171.815 270.215 172.947C268.059 174.51 267.068 175.296 265.44 175.781C263.58 176.314 261.617 176.374 259.728 175.954C256.547 175.379 253.72 173.574 251.86 170.931C251.375 170.177 251.127 169.853 251.137 169.465C251.224 167.557 256.548 165.068 279.366 162.492Z" fill="#FF8151"/>
<path d="M287.072 175.501C287.072 175.501 291.028 176.073 290.715 178.735C290.668 179.472 290.457 180.19 290.099 180.837C289.742 181.483 289.245 182.043 288.646 182.475C288.018 182.63 287.374 182.706 286.727 182.701" fill="#FCBFAC"/>
<path d="M278.601 164.992C278.601 164.992 270.064 175.771 263.597 176.741C258.607 178.034 253.379 171.945 253.379 171.945C254.475 173.287 255.863 174.361 257.438 175.085C259.013 175.808 260.733 176.16 262.465 176.116C267.908 175.933 278.601 164.992 278.601 164.992Z" fill="black"/>
<path d="M274.893 160.638L278.87 167.967L281.112 171.341L283.009 173.777L286.264 175.404L296.212 174.617L286.242 161.888L274.893 160.638Z" fill="#FF8151"/>
<path d="M275.701 162.233C275.701 162.233 279.668 172.44 284.507 174.758C288.107 176.913 293.744 173.68 293.744 173.68C292.527 174.428 291.16 174.898 289.74 175.056C288.32 175.214 286.883 175.057 285.531 174.596C281.317 173.098 275.701 162.233 275.701 162.233Z" fill="black"/>
<path d="M251.278 219.93C250.372 219.93 249.467 220.037 248.561 220.113C248.443 220.113 248.443 220.328 248.561 220.318C249.467 220.246 250.372 220.181 251.278 220.124C251.407 220.124 251.407 219.919 251.278 219.93V219.93Z" fill="#E81F71"/>
<path d="M251.989 222.107L250.016 222.398C249.887 222.398 249.941 222.603 250.016 222.581L252 222.301C252.118 222.301 252.064 222.085 251.946 222.107H251.989Z" fill="#E81F71"/>
<path d="M252.539 224.305C251.892 224.381 251.245 224.446 250.598 224.489C250.48 224.489 250.48 224.693 250.598 224.683C251.245 224.683 251.892 224.575 252.539 224.499C252.657 224.499 252.657 224.295 252.539 224.305Z" fill="#E81F71"/>
<path d="M253.013 226.353L250.943 226.159C250.814 226.159 250.825 226.342 250.943 226.364L253.013 226.569C253.142 226.569 253.142 226.386 253.013 226.375V226.353Z" fill="#E81F71"/>
<path d="M253.595 228.606L251.03 228.25C250.911 228.25 250.857 228.423 251.03 228.434L253.606 228.8C253.724 228.8 253.778 228.628 253.606 228.606H253.595Z" fill="#E81F71"/>
<path d="M253.142 230.794C252.323 230.719 251.504 230.632 250.695 230.535C250.566 230.535 250.566 230.719 250.695 230.74L253.142 230.988C253.261 230.988 253.261 230.805 253.142 230.794Z" fill="#E81F71"/>
<path d="M252.733 233.133C251.892 233.036 251.051 232.928 250.221 232.788C250.092 232.788 250.038 232.961 250.221 232.982C251.073 233.111 251.924 233.23 252.787 233.327C252.905 233.327 252.905 233.155 252.787 233.133H252.733Z" fill="#E81F71"/>
<path d="M252.463 235.526L249.919 235.224C249.79 235.224 249.801 235.407 249.919 235.418L252.463 235.72C252.592 235.72 252.592 235.537 252.463 235.526Z" fill="#E81F71"/>
<path d="M251.493 237.638C250.76 237.509 250.027 237.412 249.337 237.326C249.208 237.326 249.208 237.509 249.337 237.52C250.049 237.606 250.771 237.703 251.493 237.821C251.612 237.821 251.666 237.66 251.493 237.638Z" fill="#E81F71"/>
<path d="M250.405 239.233C249.575 239.104 248.745 238.975 247.915 238.878C247.796 238.878 247.796 239.05 247.915 239.072C248.734 239.169 249.542 239.287 250.351 239.427C250.469 239.427 250.523 239.255 250.351 239.233H250.405Z" fill="#E81F71"/>
<path d="M249.176 241.109C248.529 241.033 247.882 240.969 247.225 240.915C247.106 240.915 247.106 241.109 247.225 241.12C247.882 241.12 248.529 241.227 249.176 241.303C249.305 241.303 249.305 241.12 249.176 241.109V241.109Z" fill="#E81F71"/>
<path d="M275.777 292.015C275.893 291.74 275.946 291.442 275.931 291.143C275.916 290.844 275.834 290.553 275.69 290.29C275.572 290.064 275.238 290.29 275.356 290.484C275.466 290.708 275.523 290.953 275.523 291.201C275.523 291.45 275.466 291.695 275.356 291.918C275.259 292.144 275.637 292.241 275.734 292.015H275.777Z" fill="black"/>
<path d="M265.871 305.833L261.797 318.918L274.031 310.306L265.871 305.833Z" fill="#DADADA" fill-opacity="0.3"/>
<path d="M228.729 274.662C224.504 277.044 220.915 280.698 220.958 285.828C220.976 285.949 221.036 286.059 221.128 286.138C221.22 286.217 221.338 286.261 221.459 286.261C221.581 286.261 221.698 286.217 221.79 286.138C221.882 286.059 221.943 285.949 221.96 285.828C221.96 281.043 225.323 277.734 229.236 275.524C229.796 275.212 229.236 274.349 228.729 274.662Z" fill="black"/>
<path d="M229.958 144.589C233.353 138.909 238.139 133.811 244.595 131.72C251.321 129.564 259.06 131.396 263.295 137.227C263.522 137.529 264.028 137.227 263.802 136.926C261.831 134.335 259.16 132.362 256.105 131.239C253.049 130.116 249.736 129.89 246.557 130.588C239.012 132.075 233.245 137.906 229.419 144.287C229.399 144.32 229.386 144.357 229.381 144.396C229.375 144.434 229.377 144.473 229.387 144.51C229.396 144.548 229.413 144.583 229.436 144.614C229.459 144.645 229.488 144.672 229.522 144.691C229.555 144.711 229.592 144.724 229.63 144.73C229.668 144.735 229.707 144.733 229.745 144.724C229.782 144.714 229.818 144.698 229.849 144.674C229.88 144.651 229.906 144.622 229.926 144.589H229.958Z" fill="black"/>
<path d="M209.307 168.538C202.128 169.918 197.86 175.728 197.645 182.884C197.407 190.526 202.818 193.663 209.307 196.045C209.662 196.174 209.813 195.603 209.468 195.473C203.336 193.221 197.979 190.343 198.227 182.884C198.453 175.997 202.538 170.435 209.458 169.11C209.824 169.034 209.673 168.474 209.307 168.538Z" fill="black"/>
<path d="M205.955 198.34C205.338 199.56 204.986 200.895 204.921 202.26C204.857 203.624 205.081 204.987 205.579 206.259C206.078 207.531 206.84 208.683 207.814 209.641C208.789 210.598 209.955 211.338 211.236 211.813C211.592 211.954 211.743 211.382 211.398 211.242C210.194 210.806 209.097 210.117 208.18 209.224C207.263 208.33 206.547 207.251 206.08 206.058C205.613 204.866 205.406 203.588 205.471 202.309C205.537 201.031 205.874 199.78 206.461 198.642C206.623 198.297 206.116 198.006 205.955 198.34Z" fill="black"/>
<path d="M298.206 148.254C305.449 141.991 316.734 138.165 326.23 141.355C336.426 144.804 336.782 162.082 335.456 170.769C335.402 171.136 335.963 171.298 336.017 170.931C336.959 165.107 336.713 159.153 335.295 153.427C334.141 148.933 332.471 143.554 327.965 141.388C318.351 136.753 305.331 141.388 297.84 147.855C297.549 148.103 297.969 148.512 298.25 148.264L298.206 148.254Z" fill="black"/>
<path d="M338.69 170.436C343.659 170.263 349.026 172.591 349.727 178.045C349.781 178.411 350.363 178.422 350.32 178.045C349.565 172.246 344.036 169.67 338.69 169.843C338.313 169.843 338.313 170.446 338.69 170.436V170.436Z" fill="black"/>
<path d="M261.323 181.505C261.14 182.259 260.245 182.69 259.933 183.412C259.81 183.695 259.746 183.999 259.746 184.307C259.746 184.615 259.81 184.919 259.933 185.202C260.244 185.762 260.701 186.227 261.255 186.55C261.809 186.872 262.439 187.039 263.08 187.034C263.306 187.034 263.306 186.7 263.08 186.678C261.657 186.527 259.706 185.6 260.17 183.779C260.407 182.863 261.452 182.496 261.657 181.623C261.657 181.408 261.366 181.311 261.323 181.537V181.505Z" fill="black"/>
<path d="M288.193 181.386C289.092 181.81 289.81 182.54 290.22 183.445C290.715 184.965 289.347 185.223 288.28 185.6C288.064 185.676 288.161 186.021 288.377 185.945C289.454 185.59 290.694 185.417 290.705 184.048C290.715 182.68 289.411 181.677 288.366 181.095C288.172 180.987 287.989 181.289 288.193 181.397V181.386Z" fill="black"/>
<path d="M273.858 141.011C273.308 137.044 273.384 133.293 276.855 130.685C279.243 128.773 282.148 127.617 285.197 127.365C291.815 127.063 297.053 131.817 298.368 138.143C298.368 138.37 298.756 138.273 298.713 138.057C297.301 131.073 291.103 126.093 283.893 127.139C280.479 127.673 277.334 129.308 274.936 131.795C272.629 134.414 273.007 137.885 273.459 141.108C273.459 141.334 273.826 141.237 273.793 141.021L273.858 141.011Z" fill="black"/>
<path d="M246.546 287.251L304.749 287.682C305.06 287.682 305.359 287.558 305.58 287.338C305.8 287.118 305.924 286.819 305.924 286.507C305.924 286.196 305.8 285.897 305.58 285.677C305.359 285.456 305.06 285.333 304.749 285.333L246.546 284.912C246.255 284.94 245.985 285.075 245.789 285.292C245.592 285.508 245.483 285.789 245.483 286.082C245.483 286.374 245.592 286.655 245.789 286.872C245.985 287.088 246.255 287.223 246.546 287.251V287.251Z" fill="#E81F71"/>
<path d="M238.656 225.276C240.629 228.024 241.114 231.322 242.439 234.372C243.97 237.908 245.727 241.163 246.686 244.935C246.747 245.16 246.896 245.35 247.098 245.466C247.3 245.581 247.539 245.611 247.764 245.55C247.988 245.488 248.179 245.34 248.294 245.138C248.409 244.936 248.44 244.696 248.378 244.472C247.409 241.063 246.102 237.759 244.476 234.61C242.892 231.236 242.375 227.453 240.165 224.392C239.508 223.476 238.009 224.392 238.645 225.276H238.656Z" fill="#E81F71"/>
<path d="M276.93 329.33C267.122 330.214 257.044 328.909 247.214 328.64C238.528 328.578 229.857 327.926 221.26 326.689C212.95 325.342 204.51 323.024 197.472 318.239C189.356 312.72 184.764 304.464 183.374 294.839C183.32 294.473 182.749 294.623 182.803 295.001C184.096 303.882 188.062 311.761 195.219 317.323C201.816 322.464 209.996 325.148 218.102 326.721C226.806 328.244 235.619 329.058 244.455 329.157C255.168 329.481 266.238 330.882 276.93 329.912C277.296 329.912 277.296 329.297 276.93 329.33Z" fill="#E81F71"/>
<path d="M278.471 327.777C268.674 328.661 258.585 327.357 248.766 327.098C240.081 327.026 231.41 326.374 222.812 325.148C214.502 323.789 206.052 321.472 199.024 316.687C190.897 311.179 186.317 302.912 184.926 293.298C184.872 292.92 184.301 293.082 184.355 293.448C185.638 302.33 189.604 310.209 196.761 315.781C203.357 320.912 211.538 323.595 219.654 325.18C228.358 326.699 237.172 327.51 246.007 327.605C256.721 327.928 267.79 329.33 278.471 328.37C278.849 328.37 278.849 327.745 278.471 327.777Z" fill="#E81F71"/>
<path d="M355.353 282.272C356.431 283.048 366.326 290.689 365.539 301.802C365.108 307.805 361.756 312.128 360.311 313.981C356.783 318.372 352.13 321.724 346.849 323.682C322.059 333.63 287.892 333.878 287.892 333.878C273.567 333.975 255.557 333.598 234.754 331.938L288.646 302.33C288.646 302.33 297.571 296.1 308.349 290.129C320.949 283.134 328.763 279.351 339.132 279.243C344.682 279.211 350.188 280.239 355.353 282.272Z" fill="white"/>
<path d="M261.797 318.918L264.837 332.746C264.837 332.746 247.3 337.176 240.046 328.273C238.656 326.57 236.134 323.218 237.179 321.462C238.225 319.705 242.342 320.836 248.346 320.858C252.9 320.869 257.432 320.215 261.797 318.918V318.918Z" fill="#FFCAB0"/>
<path d="M261.161 318.853C262.088 324.587 265.85 329.287 266.949 335.021C267.025 335.387 267.585 335.226 267.521 334.859C266.443 329.179 262.649 324.469 261.722 318.745C261.722 318.368 261.107 318.53 261.161 318.896V318.853Z" fill="#E81F71"/>
<path d="M263.08 318.347C264.151 323.908 265.922 329.311 268.35 334.428C268.512 334.773 269.019 334.428 268.857 334.126C266.453 329.054 264.704 323.698 263.651 318.185C263.576 317.818 263.015 317.98 263.08 318.347Z" fill="#E81F71"/>
<path d="M270.905 329.297C281.586 330.257 292.645 328.856 303.369 328.532C312.205 328.437 321.018 327.626 329.722 326.107C337.828 324.523 346.008 321.796 352.615 316.708C359.772 311.136 363.728 303.268 365.021 294.376C365.021 294.009 364.504 293.847 364.45 294.225C363.092 303.656 358.651 311.847 350.74 317.355C343.637 322.313 335.025 324.695 326.564 326.075C318.116 327.287 309.597 327.935 301.063 328.015C291.093 328.284 280.853 329.61 270.883 328.705C270.506 328.705 270.506 329.265 270.883 329.297H270.905Z" fill="#E81F71"/>
<path d="M269.353 327.745C280.045 328.704 291.104 327.303 301.817 326.98C310.653 326.89 319.466 326.079 328.17 324.555C336.286 322.97 344.467 320.243 351.063 315.156C358.22 309.584 362.187 301.715 363.469 292.823C363.523 292.457 362.963 292.295 362.909 292.672C361.54 302.103 357.099 310.295 349.199 315.803C342.085 320.761 333.473 323.154 325.023 324.522C316.572 325.74 308.049 326.388 299.511 326.463C289.541 326.732 279.301 328.058 269.331 327.163C268.954 327.163 268.954 327.713 269.331 327.745H269.353Z" fill="#E81F71"/>
<path d="M274.936 246.315C275.593 245.959 277.156 247.393 278.094 248.675C280.487 251.909 280.455 255.843 280.142 258.3C290.618 261.857 300.912 266.751 306.312 268.572C309.111 269.423 311.854 270.449 314.525 271.644C319.095 273.8 320.819 275.352 321.434 274.877C322.512 273.929 318.513 267.645 314.32 260.973C311.205 256.026 306.775 248.956 301.483 240.247L300.642 218.399C304.63 219.024 306.279 223.519 309.06 224.068C310.554 224.505 311.835 225.476 312.66 226.795C316.699 231.934 319.93 237.658 322.242 243.771C329.323 257.697 332.859 264.67 334.098 270.2C335.661 277.098 337.504 285.235 333.247 289.126C329.938 292.155 324.506 291.131 320.313 290.431C310.181 288.717 285.639 270.469 278.773 264.563C276.617 262.698 274.839 260.876 274.656 254.862C274.699 254.108 274.332 246.638 274.936 246.315Z" fill="#FFCAB0"/>
<path d="M302.593 244.978C298.452 236.743 297.634 227.231 300.308 218.41C302.401 218.53 304.438 219.127 306.265 220.154C308.092 221.182 309.66 222.612 310.849 224.338L302.593 244.978Z" fill="#8C063D"/>
<path d="M299.414 220.124C300.319 220.174 301.224 220.239 302.13 220.318C302.259 220.318 302.259 220.124 302.13 220.113C301.224 220.037 300.319 219.973 299.414 219.93C299.284 219.93 299.284 220.113 299.414 220.124V220.124Z" fill="#E81F71"/>
<path d="M298.648 222.301L300.621 222.581C300.739 222.581 300.793 222.419 300.621 222.398L298.638 222.107C298.519 222.107 298.465 222.279 298.638 222.301H298.648Z" fill="#E81F71"/>
<path d="M298.163 224.499C298.799 224.575 299.446 224.64 300.093 224.683C300.222 224.683 300.222 224.499 300.093 224.489C299.446 224.489 298.799 224.381 298.163 224.305C298.034 224.305 298.034 224.489 298.163 224.499Z" fill="#E81F71"/>
<path d="M297.678 226.547L299.748 226.343C299.877 226.343 299.877 226.127 299.748 226.138L297.678 226.353C297.56 226.353 297.549 226.558 297.678 226.547V226.547Z" fill="#E81F71"/>
<path d="M297.15 228.8L299.715 228.434C299.834 228.434 299.78 228.229 299.715 228.25L297.15 228.606C297.032 228.606 297.075 228.822 297.15 228.8Z" fill="#E81F71"/>
<path d="M297.571 230.988L300.017 230.74C300.136 230.74 300.136 230.525 300.017 230.535L297.571 230.794C297.441 230.794 297.441 230.999 297.571 230.988Z" fill="#E81F71"/>
<path d="M297.959 233.327C298.821 233.23 299.672 233.111 300.524 232.982C300.653 232.982 300.599 232.777 300.524 232.788C299.683 232.928 298.842 233.036 298.002 233.133C297.883 233.133 297.883 233.349 298.002 233.327H297.959Z" fill="#E81F71"/>
<path d="M298.228 235.72L300.772 235.418C300.901 235.418 300.901 235.213 300.772 235.224L298.228 235.526C298.109 235.526 298.109 235.731 298.228 235.72Z" fill="#E81F71"/>
<path d="M299.252 237.822C299.974 237.703 300.685 237.606 301.408 237.52C301.526 237.52 301.526 237.315 301.408 237.326C300.664 237.412 299.931 237.509 299.252 237.638C299.123 237.638 299.176 237.843 299.252 237.822Z" fill="#E81F71"/>
<path d="M300.351 239.427C301.163 239.291 301.972 239.172 302.776 239.072C302.906 239.072 302.906 238.856 302.776 238.878C301.947 238.975 301.117 239.104 300.297 239.233C300.168 239.233 300.222 239.438 300.297 239.427H300.351Z" fill="#E81F71"/>
<path d="M301.515 241.303C302.162 241.227 302.82 241.163 303.466 241.12C303.488 241.113 303.507 241.099 303.52 241.08C303.533 241.062 303.54 241.04 303.54 241.017C303.54 240.995 303.533 240.972 303.52 240.954C303.507 240.936 303.488 240.922 303.466 240.915C302.82 240.915 302.162 241.033 301.515 241.109C301.386 241.109 301.386 241.314 301.515 241.303V241.303Z" fill="#E81F71"/>
<path d="M310.601 223.562C308.629 226.364 308.069 229.878 306.969 233.079C305.541 237.139 303.845 241.1 301.893 244.935C301.386 245.937 302.895 246.832 303.412 245.819C305.02 242.664 306.459 239.426 307.724 236.118C309.157 232.357 309.815 227.711 312.132 224.413C312.779 223.486 311.259 222.613 310.612 223.529L310.601 223.562Z" fill="#E81F71"/>
<path d="M210.341 285.02C211.419 297.437 227.35 299.883 235.261 292.371C236.339 291.293 234.69 289.676 233.601 290.711C227.285 296.714 213.586 295.475 212.691 285.02C212.562 283.522 210.212 283.511 210.341 285.02Z" fill="#DADADA"/>
<path d="M338.011 285.02C337.116 295.475 323.406 296.714 317.101 290.711C316.023 289.633 314.342 291.325 315.441 292.371C323.341 299.916 339.293 297.437 340.36 285.02C340.49 283.511 338.14 283.522 338.011 285.02Z" fill="#DADADA"/>
<path d="M275.044 262.547C275.141 265.619 277.124 267.936 279.484 269.995C282.701 272.759 286.198 275.179 289.918 277.216C290.274 277.421 290.608 276.915 290.252 276.71C285.046 273.81 275.884 268.798 275.69 262.547C275.69 262.17 275.033 262.159 275.044 262.547V262.547Z" fill="black"/>
<path d="M275.022 262.547C274.828 268.799 265.667 273.811 260.471 276.71C260.116 276.915 260.471 277.421 260.795 277.216C266.324 274.134 275.464 269.165 275.68 262.547C275.68 262.17 275.044 262.17 275.022 262.547Z" fill="black"/>
<path d="M275.443 240.311C282.33 243.545 283.472 248.816 283.44 255.52C283.44 256.005 284.216 256.005 284.227 255.52C284.227 248.46 282.955 243.006 275.841 239.665C275.389 239.46 274.99 240.107 275.443 240.311Z" fill="black"/>
<path d="M274.796 239.665C267.682 243.006 266.378 248.46 266.41 255.52C266.41 256.005 267.208 256.005 267.197 255.52C267.197 248.816 268.275 243.534 275.195 240.311C275.647 240.107 275.248 239.46 274.796 239.665V239.665Z" fill="black"/>
<path d="M321.412 275.05C325.325 277.206 328.731 280.568 328.688 285.354C328.705 285.474 328.766 285.584 328.858 285.664C328.95 285.743 329.067 285.787 329.189 285.787C329.31 285.787 329.428 285.743 329.52 285.664C329.612 285.584 329.672 285.474 329.69 285.354C329.69 280.213 326.144 276.559 321.919 274.188C321.862 274.154 321.799 274.133 321.734 274.124C321.669 274.115 321.603 274.118 321.54 274.135C321.476 274.151 321.416 274.18 321.364 274.22C321.312 274.259 321.268 274.309 321.234 274.366C321.201 274.422 321.179 274.485 321.17 274.55C321.161 274.615 321.165 274.681 321.181 274.745C321.198 274.808 321.227 274.868 321.266 274.92C321.306 274.973 321.356 275.017 321.412 275.05Z" fill="black"/>
<path d="M191.943 277.701C188.176 278.103 184.595 279.542 181.597 281.858C178.599 284.174 176.303 287.276 174.962 290.819C173.622 294.361 173.29 298.207 174.005 301.927C174.719 305.647 176.451 309.096 179.009 311.89C179.763 312.742 181.003 311.492 180.259 310.651C177.923 308.111 176.337 304.974 175.676 301.587C175.015 298.2 175.306 294.696 176.517 291.465C177.727 288.233 179.81 285.4 182.533 283.281C185.256 281.162 188.513 279.838 191.943 279.458C193.021 279.318 193.021 277.551 191.943 277.701Z" fill="white"/>
<path d="M356.744 279.458C360.17 279.845 363.422 281.174 366.139 283.296C368.856 285.418 370.933 288.251 372.138 291.482C373.344 294.712 373.631 298.213 372.969 301.596C372.306 304.98 370.719 308.114 368.384 310.651C367.63 311.492 368.869 312.742 369.624 311.89C372.18 309.099 373.912 305.655 374.629 301.939C375.346 298.223 375.019 294.381 373.685 290.84C372.351 287.298 370.062 284.196 367.071 281.876C364.08 279.557 360.506 278.112 356.744 277.701C355.666 277.551 355.666 279.318 356.744 279.458V279.458Z" fill="white"/>
<path d="M279.021 178.217C279.188 178.632 279.45 179.001 279.786 179.295C280.144 179.51 280.554 179.623 280.972 179.623C281.389 179.623 281.799 179.51 282.157 179.295C282.501 178.982 282.795 178.618 283.031 178.217C282.982 178.72 282.792 179.199 282.481 179.597C282.082 179.967 281.559 180.172 281.015 180.172C280.471 180.172 279.948 179.967 279.549 179.597C279.2 179.224 279.011 178.729 279.021 178.217V178.217Z" fill="black"/>
<path d="M267.143 178.217C267.31 178.635 267.576 179.005 267.919 179.295C268.268 179.531 268.686 179.641 269.105 179.608C269.524 179.626 269.937 179.504 270.28 179.263C270.623 178.947 270.921 178.584 271.164 178.185C271.119 178.697 270.932 179.186 270.625 179.597C270.226 179.967 269.702 180.172 269.159 180.172C268.615 180.172 268.092 179.967 267.693 179.597C267.336 179.227 267.139 178.731 267.143 178.217Z" fill="black"/>
<path d="M272.209 186.818C272.486 187.356 272.884 187.821 273.373 188.176C273.885 188.503 274.479 188.679 275.087 188.683C275.692 188.677 276.284 188.498 276.79 188.166C277.282 187.815 277.684 187.353 277.965 186.818C277.876 187.444 277.566 188.018 277.092 188.435C276.532 188.867 275.836 189.085 275.13 189.05C274.409 189.101 273.694 188.882 273.125 188.435C272.639 188.021 272.315 187.448 272.209 186.818V186.818Z" fill="#686868"/>
<path d="M336.905 62C332.405 73 336.305 85.8 344.105 94.1C349.705 100.1 362.405 109.6 371.505 108C372.705 107.8 373.805 107.4 374.805 106.8C381.105 103.1 382.005 92.8 380.205 86.5C378.305 79.6 372.705 74 365.905 72C361.305 70.6 355.505 70.4 353.305 66.1C351.705 62.9 352.705 58.5 350.405 55.8C349.305 54.6 347.705 54 346.105 54C344.805 54 343.505 54.4 342.405 55C339.805 56.5 338.105 59.2 336.905 62Z" fill="#7175DA"/>
<path opacity="0.5" d="M336.905 62C332.405 73 336.305 85.8 344.105 94.1C349.705 100.1 362.405 109.6 371.505 108C372.705 107.8 373.805 107.4 374.805 106.8C381.105 103.1 382.005 92.8 380.205 86.5C378.305 79.6 372.705 74 365.905 72C361.305 70.6 355.505 70.4 353.305 66.1C351.705 62.9 352.705 58.5 350.405 55.8C349.305 54.6 347.705 54 346.105 54C344.805 54 343.505 54.4 342.405 55C339.805 56.5 338.105 59.2 336.905 62Z" fill="#7175DA"/>
<path opacity="0.2" d="M346.105 54C344.805 57.1 344.605 60.6 345.305 63.8C346.205 68 348.405 71.8 351.105 75C353.805 78.2 357.005 81 360.205 83.8C363.305 86.6 366.505 89.5 368.905 93C370.505 95.3 371.805 97.7 372.805 100.3C373.505 102.2 373.605 105.2 374.905 106.8C381.205 103.1 382.105 92.8 380.305 86.5C378.405 79.6 372.805 74 366.005 72C361.405 70.6 355.605 70.4 353.405 66.1C351.805 62.9 352.805 58.5 350.505 55.8C349.405 54.6 347.805 54 346.105 54Z" fill="#7578DC"/>
<path d="M356.205 80.3C365.805 86.8 372.605 97.4 374.605 109.1" stroke="white" stroke-miterlimit="10" stroke-linecap="round" stroke-linejoin="round"/>
<path d="M319.894 104.375C316.239 101.181 314.047 96.8245 312 92.4684C314.924 93.9205 318.286 94.6465 321.502 95.5177C325.741 96.6793 336.558 100.164 334.365 106.553C334.365 106.698 334.219 106.698 334.219 106.843C337.435 108.731 340.651 110.764 343.721 112.942C342.113 109.602 344.159 102.923 345.329 100.6C347.522 96.3889 351.322 93.1944 354.977 90C354.246 93.1944 354.392 96.5341 354.392 99.8737C354.392 104.23 353.661 115.556 346.791 114.975C346.645 114.975 346.644 114.975 346.498 114.975C350.299 117.879 354.1 120.928 357.608 124.268C356 120.928 357.9 114.249 359.216 111.78C361.409 107.569 365.209 104.375 368.864 101.181C368.133 104.375 368.279 107.715 368.279 111.054C368.279 115.41 367.548 126.736 360.678 126.155C360.239 126.155 359.801 126.01 359.362 125.865C362.724 129.205 366.086 132.689 369.156 136.319C367.987 132.835 369.887 126.736 371.056 124.413C373.249 120.202 377.05 117.008 380.704 113.813C379.973 117.008 380.12 120.347 380.12 123.687C380.12 128.043 379.389 139.369 372.518 138.788C371.934 138.788 371.495 138.643 371.056 138.352C373.98 141.982 376.757 145.903 379.389 149.823C378.219 146.338 380.12 140.24 381.289 138.062C383.482 133.851 387.282 130.657 390.937 127.462C390.206 130.657 390.352 133.996 390.352 137.336C390.352 141.692 389.621 153.018 382.751 152.437C381.874 152.437 381.143 152.146 380.704 151.711C390.791 167.828 397.515 186.124 400 204.855L398.977 205C396.638 186.559 390.06 168.699 380.12 152.872C380.12 153.163 379.973 153.453 379.973 153.889C377.927 160.423 367.11 156.938 363.017 155.341C359.947 154.179 356.877 152.872 353.515 152.292C357.754 150.114 362.14 147.79 366.963 147.355C369.302 147.064 374.711 147.5 377.927 149.388C375.734 146.048 373.249 142.708 370.764 139.514C370.764 139.949 370.764 140.385 370.618 140.821C368.571 147.355 357.754 143.87 353.661 142.273C350.591 141.111 347.522 139.804 344.159 139.223C348.399 137.045 352.784 134.722 357.608 134.287C359.801 133.996 364.625 134.432 367.841 135.884C365.063 132.544 361.993 129.35 358.777 126.301C358.924 126.881 358.924 127.607 358.777 128.479C356.731 135.013 345.914 131.528 341.821 129.931C338.751 128.769 335.681 127.462 332.319 126.881C336.558 124.703 340.943 122.38 345.767 121.944C347.814 121.799 352.492 122.09 355.708 123.396C352.492 120.492 349.13 117.734 345.621 115.12C346.06 115.846 346.06 116.717 345.767 117.879C343.721 124.413 332.904 120.928 328.811 119.331C325.741 118.169 322.671 116.862 319.309 116.282C323.548 114.104 327.934 111.78 332.757 111.345C334.658 111.199 338.605 111.345 341.674 112.506C339.189 110.909 336.704 109.312 334.219 107.86C330.857 111.49 322.525 106.698 319.894 104.375Z" fill="#1A1C6C"/>
</g>
<defs>
<linearGradient id="paint0_linear" x1="90.7157" y1="188.478" x2="-81.8506" y2="335.599" gradientUnits="userSpaceOnUse">
<stop stop-color="#FB939E"/>
<stop offset="1" stop-color="#FCC58B"/>
</linearGradient>
<linearGradient id="paint1_linear" x1="10.5" y1="168" x2="10.5" y2="298" gradientUnits="userSpaceOnUse">
<stop stop-color="#7F82E3"/>
<stop offset="1" stop-color="#2D31AC" stop-opacity="0"/>
</linearGradient>
<linearGradient id="paint2_linear" x1="-8.83768" y1="275.97" x2="83.9587" y2="275.97" gradientUnits="userSpaceOnUse">
<stop stop-color="#0E655F"/>
<stop offset="1" stop-color="#22B94D"/>
</linearGradient>
<clipPath id="clip0">
<rect width="375" height="812" fill="white"/>
</clipPath>
</defs>
</svg>
